<?xml version="1.0" encoding="utf-8"?>
<!-- Generator: Adobe Illustrator 21.1.0, SVG Export Plug-In . SVG Version: 6.00 Build 0)  -->
<svg version="1.0" xmlns="http://www.w3.org/2000/svg" xmlns:xlink="http://www.w3.org/1999/xlink" x="0px" y="0px" width="1000px"
	 height="1000px" viewBox="0 0 1000 1000" enable-background="new 0 0 1000 1000" xml:space="preserve">
<g id="Lager_2">
</g>
<g id="Lager_1">
	<g>
		<rect x="597.8" y="206.3" fill="#FFFFFF" width="7.2" height="42.3"/>
		<polygon fill="#FFFFFF" points="608.1,191.9 601.4,202.2 594.7,191.9 597.9,188.7 604.9,188.7 		"/>
		<g>
			<g>
				<path fill="#FFFFFF" d="M309.9,203.8l35.2,20.5c-1.4-26-22.9-46.7-49.3-46.7c-27.3,0-49.4,22.1-49.4,49.4s22.1,49.4,49.4,49.4
					c8.4,0,16.3-2.1,23.2-5.8l-23.2-12.5L309.9,203.8z"/>
				<path fill="#EAEAEA" d="M345.1,227c0-0.9,0-1.8-0.1-2.7l-35.2-20.5l-14.1,54.3l23.2,12.5C334.5,262.3,345.1,245.9,345.1,227z"/>
			</g>
			<polygon fill="#E14646" points="322.8,216.7 295.8,258.1 268.8,216.7 281.7,203.8 309.9,203.8 			"/>
			<polygon fill="#C64040" points="295.8,253.4 272,216.6 281.8,206.4 280.3,217.1 			"/>
			<polygon fill="#C64040" points="308.9,206.4 319.3,216.8 311.6,216.8 			"/>
		</g>
		<path fill="#FFFFFF" d="M381.3,248.6h-7.2v-60h7.2V248.6z"/>
		<path fill="#FFFFFF" d="M391,227c0-4.1,0.8-7.9,2.4-11.2c1.6-3.3,3.9-5.9,6.8-7.7c2.9-1.8,6.2-2.7,9.9-2.7c5.8,0,10.4,2,14,6
			s5.3,9.3,5.3,15.9v0.5c0,4.1-0.8,7.8-2.4,11.1c-1.6,3.3-3.8,5.8-6.8,7.6c-2.9,1.8-6.3,2.7-10.1,2.7c-5.7,0-10.4-2-13.9-6
			s-5.3-9.3-5.3-15.8V227z M398.2,227.9c0,4.7,1.1,8.5,3.3,11.3c2.2,2.8,5.1,4.3,8.7,4.3c3.7,0,6.6-1.4,8.8-4.3
			c2.2-2.9,3.2-6.9,3.2-12.1c0-4.6-1.1-8.4-3.3-11.3c-2.2-2.9-5.1-4.3-8.8-4.3c-3.6,0-6.4,1.4-8.6,4.3
			C399.3,218.5,398.2,222.6,398.2,227.9z"/>
		<path fill="#FFFFFF" d="M458.9,212.8c-1.1-0.2-2.3-0.3-3.6-0.3c-4.7,0-8,2-9.6,6.1v30h-7.2v-42.3h7l0.1,4.9
			c2.4-3.8,5.7-5.7,10.1-5.7c1.4,0,2.5,0.2,3.2,0.5V212.8z"/>
		<path fill="#FFFFFF" d="M482.4,249.3c-5.7,0-10.4-1.9-14-5.6c-3.6-3.8-5.4-8.8-5.4-15.1v-1.3c0-4.2,0.8-7.9,2.4-11.2
			c1.6-3.3,3.8-5.9,6.7-7.7c2.9-1.9,6-2.8,9.4-2.8c5.5,0,9.8,1.8,12.8,5.4c3,3.6,4.6,8.8,4.6,15.5v3h-28.6c0.1,4.2,1.3,7.5,3.7,10.1
			c2.3,2.6,5.3,3.8,8.9,3.8c2.6,0,4.7-0.5,6.5-1.6c1.8-1,3.3-2.4,4.6-4.1l4.4,3.4C494.8,246.6,489.5,249.3,482.4,249.3z
			 M481.5,211.4c-2.9,0-5.4,1.1-7.3,3.2c-2,2.1-3.2,5.1-3.7,8.9h21.2V223c-0.2-3.7-1.2-6.5-3-8.5
			C486.9,212.5,484.5,211.4,481.5,211.4z"/>
		<path fill="#FFFFFF" d="M514,206.3l0.2,4.7c3.1-3.6,7.3-5.5,12.5-5.5c5.9,0,9.9,2.3,12.1,6.8c1.4-2,3.2-3.7,5.5-4.9
			c2.3-1.3,4.9-1.9,8-1.9c9.3,0,14,4.9,14.1,14.7v28.3h-7.2v-27.9c0-3-0.7-5.3-2.1-6.8c-1.4-1.5-3.7-2.2-7-2.2
			c-2.7,0-4.9,0.8-6.7,2.4c-1.8,1.6-2.8,3.8-3.1,6.5v28h-7.3v-27.7c0-6.1-3-9.2-9-9.2c-4.7,0-8,2-9.7,6.1v30.9h-7.2v-42.3H514z"/>
		<path fill="#FFFFFF" d="M652.3,227.9c0,6.4-1.5,11.6-4.4,15.5c-2.9,3.9-6.9,5.9-12,5.9c-5.1,0-9.2-1.6-12.1-4.9v20.4h-7.2v-58.5
			h6.6l0.4,4.7c2.9-3.6,7-5.5,12.3-5.5c5.1,0,9.1,1.9,12.1,5.7c3,3.8,4.4,9.2,4.4,16V227.9z M645,227.1c0-4.8-1-8.5-3-11.3
			c-2-2.8-4.8-4.1-8.4-4.1c-4.4,0-7.7,1.9-9.8,5.8v20.2c2.2,3.9,5.5,5.8,9.9,5.8c3.5,0,6.2-1.4,8.3-4.1
			C644,236.6,645,232.5,645,227.1z"/>
		<path fill="#FFFFFF" d="M686,237.3c0-2-0.7-3.5-2.2-4.6c-1.5-1.1-4-2-7.7-2.8c-3.7-0.8-6.6-1.7-8.7-2.8s-3.7-2.4-4.8-3.9
			c-1-1.5-1.5-3.3-1.5-5.4c0-3.5,1.5-6.4,4.4-8.8c2.9-2.4,6.7-3.6,11.2-3.6c4.8,0,8.7,1.2,11.7,3.7c3,2.5,4.5,5.6,4.5,9.5h-7.3
			c0-2-0.8-3.7-2.5-5.1c-1.7-1.4-3.8-2.1-6.3-2.1c-2.6,0-4.7,0.6-6.2,1.7c-1.5,1.1-2.2,2.6-2.2,4.5c0,1.7,0.7,3.1,2.1,3.9
			c1.4,0.9,3.9,1.7,7.5,2.5c3.6,0.8,6.5,1.8,8.8,2.9c2.2,1.1,3.9,2.5,5,4c1.1,1.6,1.6,3.5,1.6,5.8c0,3.8-1.5,6.8-4.5,9.1
			c-3,2.3-6.9,3.4-11.8,3.4c-3.4,0-6.4-0.6-9-1.8c-2.6-1.2-4.6-2.9-6.1-5c-1.5-2.1-2.2-4.5-2.2-7h7.2c0.1,2.4,1.1,4.3,2.9,5.8
			c1.8,1.4,4.2,2.1,7.2,2.1c2.7,0,4.9-0.6,6.6-1.7C685.2,240.7,686,239.2,686,237.3z"/>
		<path fill="#FFFFFF" d="M728.8,244.4c-2.8,3.3-6.9,5-12.4,5c-4.5,0-7.9-1.3-10.3-3.9c-2.4-2.6-3.5-6.5-3.6-11.6v-27.5h7.2v27.3
			c0,6.4,2.6,9.6,7.8,9.6c5.5,0,9.2-2.1,11-6.2v-30.7h7.2v42.3h-6.9L728.8,244.4z"/>
		<path fill="#FFFFFF" d="M753.6,206.3l0.2,4.7c3.1-3.6,7.3-5.5,12.5-5.5c5.9,0,9.9,2.3,12.1,6.8c1.4-2,3.2-3.7,5.5-4.9
			c2.3-1.3,4.9-1.9,8-1.9c9.3,0,14,4.9,14.1,14.7v28.3h-7.2v-27.9c0-3-0.7-5.3-2.1-6.8c-1.4-1.5-3.7-2.2-7-2.2
			c-2.7,0-4.9,0.8-6.7,2.4c-1.8,1.6-2.8,3.8-3.1,6.5v28h-7.3v-27.7c0-6.1-3-9.2-9-9.2c-4.7,0-8,2-9.7,6.1v30.9h-7.2v-42.3H753.6z"/>
	</g>
</g>
</svg>
